<svg xmlns="http://www.w3.org/2000/svg" enable-background="new 0 0 512 512" viewBox="0 0 512 512" id="bloodcell"><ellipse cx="112" cy="328" fill="#ED645F" rx="96" ry="48"></ellipse><path fill="#592624" d="M112,352c-30.824,0-64-8.762-64-28c0-4.418,3.582-8,8-8c4.387,0,7.949,3.53,8,7.905
		C65.135,327.285,81.396,336,112,336s46.865-8.715,48-12.095c0.051-4.375,3.613-7.905,8-7.905c4.418,0,8,3.582,8,8
		C176,343.238,142.824,352,112,352z"></path><ellipse cx="352" cy="368" fill="#ED645F" rx="96" ry="48"></ellipse><path fill="#592624" d="M352,392c-30.824,0-64-8.762-64-28c0-4.418,3.582-8,8-8c4.387,0,7.949,3.53,8,7.905
		c1.136,3.38,17.397,12.095,48,12.095s46.865-8.715,48-12.095c0.051-4.375,3.613-7.905,8-7.905c4.418,0,8,3.582,8,8
		C416,383.238,382.824,392,352,392z"></path><ellipse cx="399.471" cy="219.284" fill="#ED645F" rx="96" ry="48" transform="rotate(-26.565 399.484 219.291)"></ellipse><path fill="#592624" d="M362.091,254.49c-10.079,0-18.051-2.961-21.652-10.161c-1.976-3.952-0.375-8.757,3.577-10.733
		c3.924-1.963,8.688-0.398,10.69,3.493c2.527,2.513,20.97,3.036,48.342-10.649c27.371-13.686,38.019-28.752,37.524-32.283
		c-1.911-3.936-0.304-8.687,3.619-10.648c3.953-1.977,8.757-0.374,10.733,3.577c2.84,5.681,3.459,15.34-9.725,29.098
		c-8.39,8.754-20.818,17.479-34.996,24.567C394.172,248.767,376.099,254.489,362.091,254.49z M440.615,194.241h0.01H440.615z"></path><ellipse cx="306.73" cy="146.234" fill="#ED645F" rx="72.362" ry="36.181" transform="rotate(-26.565 306.74 146.239)"></ellipse><path fill="#592624" d="M278.577,174.734c-7.171,0-14.672-1.876-18.105-8.741c-1.976-3.952-0.374-8.758,3.578-10.733
		c3.741-1.869,8.245-0.534,10.392,2.963c2.938,1.307,15.895,0.749,34.105-8.356c18.211-9.106,26.429-19.137,27.148-22.271
		c-1.51-3.816,0.125-8.221,3.865-10.091c3.953-1.975,8.758-0.373,10.733,3.577c4.392,8.784-1.747,17.996-7.67,24.177
		c-6.476,6.758-16.036,13.477-26.92,18.918c-10.884,5.442-21.995,9.06-31.286,10.186
		C282.559,174.588,280.581,174.734,278.577,174.734z M335.981,128.238h0.01H335.981z"></path><ellipse cx="156.677" cy="210.787" fill="#ED645F" rx="36.181" ry="72.362" transform="rotate(-68.628 156.685 210.796)"></ellipse><path fill="#592624" d="M183.081,236.804c-0.553,0-1.098-0.009-1.634-0.024c-9.355-0.281-20.748-2.878-32.08-7.312
		c-11.332-4.435-21.461-10.26-28.522-16.403c-6.458-5.619-13.406-14.237-9.828-23.383c1.61-4.115,6.25-6.147,10.365-4.535
		c3.894,1.523,5.921,5.762,4.763,9.7c0.999,3.055,10.091,12.301,29.053,19.721c18.958,7.42,31.913,6.801,34.721,5.235
		c1.822-3.678,6.186-5.413,10.081-3.892c4.115,1.61,6.145,6.251,4.535,10.365C201.18,234.849,191.347,236.804,183.081,236.804z"></path></svg>