<svg xmlns="http://www.w3.org/2000/svg" viewBox="0 0 512 512" id="burning-calories"><defs><linearGradient id="a" x1="277.67" x2="342.53" y1="290.68" y2="290.68" gradientUnits="userSpaceOnUse"><stop offset="0" stop-color="#cacfdd"></stop><stop offset="1" stop-color="#eef0f1"></stop></linearGradient></defs><g style="isolation:isolate"><g><path fill="#e08326" d="M297.71,184.09v2.74a118.9,118.9,0,0,1-34.83,84.08c-.1.11,0,0,0-45.39a70.12,70.12,0,0,0-20.53-49.58h0a119.14,119.14,0,0,1-34.91-84.28V204a39.61,39.61,0,0,1-39.61,39.6c.1,0,0,1.82,0-73.87l-11.24,11a106.3,106.3,0,0,0-31.94,76v44.79A107.7,107.7,0,0,0,232.33,409.15h2.39a100.51,100.51,0,0,0,68.84-27.26l7.27-6.83a100.56,100.56,0,0,0,31.7-73.27v-9.51A153,153,0,0,0,297.71,184.09Z"></path><path fill="#e08326" d="M342.53,292.27v9.52a100.52,100.52,0,0,1-31.7,73.27c-9.7,9.11-19.67,19.32-39.09,27a100.64,100.64,0,0,1-37,7.06h-2.39A107.71,107.71,0,0,1,124.65,301.47V256.68a106.3,106.3,0,0,1,31.94-76l11.24-11v73.87A39.61,39.61,0,0,0,207.44,204V91.66A119.22,119.22,0,0,0,242.34,176a70,70,0,0,1,20.54,49.57v45.4a118.92,118.92,0,0,0,34.83-84.09v-2.74A153.06,153.06,0,0,1,342.53,292.27Z"></path><path d="M342.53,292.27v9.52A100.7,100.7,0,0,1,330.2,350H290.48l-7.61-19.49a75.5,75.5,0,0,1,47-99.22A152.92,152.92,0,0,1,342.53,292.27Z" style="mix-blend-mode:multiply" fill="url(#a)"></path><path fill="#5e6175" d="M234.72,412.16h-2.39c-60.12,0-110.68-48.62-110.68-110.69V256.68a110,110,0,0,1,32.84-78.12l16.34-16v77.88A36.66,36.66,0,0,0,204.44,204V91.66h6a115.4,115.4,0,0,0,34,82.16,72.63,72.63,0,0,1,21.41,51.7v37.82a115,115,0,0,0,28.83-76.51v-10l5.12,5.12a155,155,0,0,1,45.7,110.31v9.51a103.92,103.92,0,0,1-32.65,75.46l-7.26,6.83A103.22,103.22,0,0,1,234.72,412.16ZM164.83,176.84l-6.14,6a103.94,103.94,0,0,0-31,73.83v44.79c0,58.7,47.81,104.69,104.68,104.69h2.39a97.21,97.21,0,0,0,66.79-26.46l7.26-6.82a97.88,97.88,0,0,0,30.76-71.09v-9.51a148.92,148.92,0,0,0-38.9-100.79A121,121,0,0,1,265,273l-5.12,5.12V225.52a66.68,66.68,0,0,0-19.65-47.45,121.66,121.66,0,0,1-29.79-48.39V204a42.66,42.66,0,0,1-42.61,42.6h-3Z"></path><path fill="#f5f5f5" d="M233.51,308l-33,44.69a35.44,35.44,0,0,0,28.48,56.51h9.29a35.42,35.42,0,0,0,28.44-56.53Z"></path><path fill="#5e6175" d="M238.23,412.16h-9.29a38.45,38.45,0,0,1-30.89-61.3l35.44-47.94c3.57,4.77-2.14-2.91,35.59,47.92a38.42,38.42,0,0,1-30.85,61.32ZM233.51,313l-30.63,41.43a32.45,32.45,0,0,0,26.06,51.74h9.29a32.42,32.42,0,0,0,26-51.75Z"></path><path fill="#e08326" d="M170.53 442.51C38.3 382 9.65 206.78 115.19 107.2A204.1 204.1 0 01288.47 54L286 69.1C172.62 50.9 69.64 136.79 66.33 250.68a189.25 189.25 0 00110.58 177.9zM228.41 458.75l2.07-15.19C344.79 459.09 445.75 370 445.75 255.79A189.75 189.75 0 00332.89 82.41l6.2-14a205.07 205.07 0 01122 187.39C461.08 379.89 351.76 475.52 228.41 458.75z"></path><polygon fill="#e08326" points="274.29 36 270.9 83.82 304.43 62.12 274.29 36"></polygon><polygon fill="#e08326" points="233.43 476 238.01 428.28 203.95 449.13 233.43 476"></polygon><path fill="#f5f5f5" d="M301,334.71C296.49,323.33,293,316,293,303.08a60.1,60.1,0,1,1,120.2,0c0,13.06-3.7,20.78-7.94,31.63Z"></path><path fill="#5e6175" d="M407.32,337.71H298.9l-4.56-11.65C278.19,284.77,308.75,240,353.11,240s74.92,44.77,58.77,86.08Zm-104.32-6H403.22l3.07-7.84C420.9,286.51,393.24,246,353.11,246s-67.81,40.52-53.18,77.89Z"></path><path fill="#dee1ec" d="M394.81,319.38c11.44-29.27-10.16-61.07-41.7-61.07s-53.14,31.83-41.7,61.07Z"></path><path fill="#5e6175" d="M396.85,322.38H309.36l-.74-1.91c-12.25-31.31,11-65.16,44.49-65.16s56.75,33.83,44.49,65.16Zm-83.34-6h79.2a41.77,41.77,0,1,0-79.2,0Z"></path><path fill="#5e6175" d="M344.3,323.41a11.69,11.69,0,0,1,.35-16.3c10.46-10.46,19.61-14.57,28.17-18.78l6.86,6.86c-4.45,9.05-8.42,17.81-18.78,28.17A11.48,11.48,0,0,1,344.3,323.41Zm27.32-27.8-2.36,1.16a76.73,76.73,0,0,0-20.37,14.58,5.5,5.5,0,1,0,7.76,7.77,76.32,76.32,0,0,0,14.59-20.37l1.16-2.36Z"></path><path fill="#5e6175" d="M376,295.79,372.22,292l-4.29,2.11a79.83,79.83,0,0,0-21.16,15.15,8.68,8.68,0,0,0-.31,12.1,8.49,8.49,0,0,0,12.12.11,79.7,79.7,0,0,0,15.35-21.36Z"></path><rect width="6" height="9.78" x="350.11" y="258.31" fill="#5e6175"></rect><rect width="6" height="9.78" x="316.65" y="276.13" fill="#5e6175" transform="rotate(-45 319.606 281.005)"></rect><rect width="9.78" height="6" x="381.5" y="278.01" fill="#5e6175" transform="rotate(-45 386.398 281.009)"></rect><rect width="20.1" height="6" x="320.86" y="167.62" fill="#5e6175" transform="rotate(-45 330.91 170.613)"></rect><rect width="6" height="20.1" x="304.23" y="147.09" fill="#5e6175"></rect><rect width="20.1" height="6" x="334.88" y="190.08" fill="#5e6175"></rect><path fill="#a9afc4" d="M104.69,246.4l-6-.22c.07-2,.21-4.11.39-6.15l6,.55C104.89,242.51,104.76,244.47,104.69,246.4Zm1.69-15.46-5.91-1.07c.37-2,.79-4,1.27-6l5.83,1.38C107.13,227.11,106.72,229,106.38,230.94Zm3.84-15.09-5.7-1.88c.64-1.92,1.33-3.87,2.07-5.79l5.6,2.16C111.49,212.16,110.83,214,110.22,215.85Zm5.84-14.48-5.42-2.58c.87-1.83,1.81-3.67,2.78-5.48l5.29,2.84C117.78,197.88,116.89,199.64,116.06,201.37Zm7.59-13.67-5.07-3.21c1.09-1.71,2.23-3.43,3.4-5.11l4.92,3.43C125.78,184.42,124.69,186.06,123.65,187.7ZM132.78,175l-4.67-3.76c1.27-1.59,2.6-3.17,3.94-4.69l4.51,4C135.28,171.93,134,173.44,132.78,175Zm10.5-11.61-4.19-4.29c2.81-2.73,4.57-4.18,4.65-4.24l3.79,4.64S145.88,160.83,143.28,163.35Z"></path><path fill="#5e6175" d="M324.07 412.15h0a11 11 0 117.8-3.14A10.88 10.88 0 01324.07 412.15zm.11-16a5 5 0 105 5A5 5 0 00324.18 396.16zM355.56 358.46a8.55 8.55 0 1114.52 6.2A8.54 8.54 0 01355.56 358.46zM364.1 356a2.55 2.55 0 101.78 4.38A2.54 2.54 0 00364.1 356z"></path></g></g></svg>