<svg xmlns="http://www.w3.org/2000/svg" enable-background="new 0 0 64 64" viewBox="0 0 64 64" id="hot-temprature"><path fill="#FF943E" d="M28 14c-.6 0-1-.4-1-1V9c0-.6.4-1 1-1s1 .4 1 1v4C29 13.6 28.6 14 28 14zM28 40c-.6 0-1-.4-1-1v-4c0-.6.4-1 1-1s1 .4 1 1v4C29 39.6 28.6 40 28 40zM17 25h-4c-.6 0-1-.4-1-1s.4-1 1-1h4c.6 0 1 .4 1 1S17.6 25 17 25zM20.2 17.2c-.3 0-.5-.1-.7-.3l-2.8-2.8c-.4-.4-.4-1 0-1.4s1-.4 1.4 0l2.8 2.8c.4.4.4 1 0 1.4C20.7 17.1 20.5 17.2 20.2 17.2zM17.4 35.6c-.3 0-.5-.1-.7-.3-.4-.4-.4-1 0-1.4l2.8-2.8c.4-.4 1-.4 1.4 0s.4 1 0 1.4l-2.8 2.8C17.9 35.5 17.6 35.6 17.4 35.6zM31 16.6c-.9-.4-1.9-.6-3-.6-4.4 0-8 3.6-8 8s3.6 8 8 8c1.1 0 2.1-.2 3-.6V16.6z"></path><g><path fill="#ED8A77" d="M45,36.3V17c0-2.8-2.2-5-5-5s-5,2.2-5,5v19.3c-3,1.7-5,5-5,8.7c0,5.5,4.5,10,10,10s10-4.5,10-10C50,41.3,48,38.1,45,36.3z"></path><path fill="#ED4220" d="M40,52c-3.9,0-7-3.1-7-7c0-2.5,1.3-4.8,3.5-6.1l1.5-0.9V17c0-1.1,0.9-2,2-2s2,0.9,2,2v21.1l1.5,0.9c2.2,1.3,3.5,3.6,3.5,6.1C47,48.9,43.9,52,40,52z"></path><path fill="#D93D1D" d="M43.8,39.2c0.7,1.1,1.2,2.4,1.2,3.8c0,3.9-3.1,7-7,7c-1.4,0-2.7-0.4-3.8-1.2c1.3,1.9,3.4,3.2,5.8,3.2c3.9,0,7-3.1,7-7C47,42.6,45.7,40.4,43.8,39.2z"></path></g></svg>